PathFileType	4	(X/Y/Z)	./resultDataOpenSim/trcMotMarkerGrf/sub10/qtm-05-04.trc
DataRate	CameraRate	NumFrames	NumMarkers	Units	OrigDataRate	OrigDataStartFrame	OrigNumFrames
250.000000	250.000000	5	24	m	250.000000	259	516
Frame#	Time	L.Toe.Tip			R.Toe.Tip			L.Ankle.Lat			R.Ankle.Lat			L.Ankle.Med			R.Ankle.Med			L.Heel			R.Heel			L.Knee.Lat			R.Knee.Lat			L.Knee.Med			R.Knee.Med			L.Thigh.Upper			R.Thigh.Upper			L.ASIS			R.ASIS			V.Sacral			L.Acromium			R.Acromium			C7			L.Elbow			R.Elbow			L.Wrist.Lat			R.Wrist.Lat
		X1	Y1	Z1	X2	Y2	Z2	X3	Y3	Z3	X4	Y4	Z4	X5	Y5	Z5	X6	Y6	Z6	X7	Y7	Z7	X8	Y8	Z8	X9	Y9	Z9	X10	Y10	Z10	X11	Y11	Z11	X12	Y12	Z12	X13	Y13	Z13	X14	Y14	Z14	X15	Y15	Z15	X16	Y16	Z16	X17	Y17	Z17	X18	Y18	Z18	X19	Y19	Z19	X20	Y20	Z20	X21	Y21	Z21	X22	Y22	Z22	X23	Y23	Z23	X24	Y24	Z24

259	1.032	0.01554473	-0.056167521	-0.11429009	0.31804952	0.10722607	0.085441436	-0.10854467	-0.0029430733	-0.16075209	0.18333729	0.15000994	0.067436969	-0.10665914	0.02101096	-0.080748907	0.23921054	0.16405003	-0.0029382445	-0.17920207	-0.016804354	-0.123273	0.15043961	0.12856381	0.0041416235	-0.012396178	0.37458167	-0.18711443	0.33362834	0.50683315	0.11374112	-0.022013691	0.35291775	-0.066379949	0.37625427	0.52322492	-0.0094820428	0.065189313	0.76508983	-0.24053782	0.076516768	0.81035688	0.14362541	0.13580211	0.87136054	-0.17921892	0.13484126	0.89283107	0.062248623	-0.077526714	0.90634547	-0.040412191	0.10013187	1.3487522	-0.21792575	0.078671615	1.3557609	0.10176308	0.010657246	1.3812139	-0.07292708	0.069645535	1.0064065	-0.30257383	-0.055647471	1.0375487	0.12882926	0.27814817	0.87018422	-0.30018855	-0.0027582548	0.81510866	0.21481202
260	1.036	0.015448966	-0.056218657	-0.11426512	0.33824466	0.10641212	0.085584813	-0.10883952	-0.0027517718	-0.16025771	0.20240355	0.14571868	0.068535921	-0.10645624	0.021211058	-0.080163195	0.25750353	0.16144398	-0.0021775932	-0.17929105	-0.01649933	-0.12232013	0.16978717	0.12352744	0.0051656797	-0.012379713	0.37454079	-0.1869078	0.34173564	0.50832895	0.11330595	-0.021509629	0.35277732	-0.066241707	0.38320306	0.52520597	-0.0098873849	0.068328953	0.76461484	-0.24051662	0.083040669	0.8109113	0.14380711	0.13954088	0.87066508	-0.17984664	0.14063591	0.89263495	0.061758174	-0.072482952	0.90619331	-0.038977421	0.10537894	1.3483274	-0.2178424	0.084809079	1.3550185	0.10184553	0.016417148	1.3806294	-0.072666424	0.077993278	1.0055425	-0.30219028	-0.05264433	1.0381511	0.12881288	0.28924208	0.87287324	-0.29681058	-0.0017616235	0.81553924	0.21559212
261	1.04	0.015479169	-0.056228489	-0.11436412	0.35843643	0.10558731	0.08567836	-0.10905274	-0.0026125498	-0.15968821	0.22170113	0.14154428	0.069437249	-0.10623311	0.021375954	-0.079519783	0.27581816	0.15894346	-0.0014156676	-0.17936698	-0.016223821	-0.12131506	0.18915354	0.11865435	0.0062494608	-0.012243365	0.37445194	-0.1866754	0.34967449	0.50961834	0.11289872	-0.020721635	0.35263216	-0.066170234	0.38998197	0.5268556	-0.010261946	0.071499103	0.7640328	-0.24050847	0.089137684	0.81124925	0.14378513	0.14330888	0.86988661	-0.18040843	0.146469	0.89233977	0.06127544	-0.067470734	0.9059019	-0.037552162	0.1106595	1.3477823	-0.21775838	0.090950767	1.3541619	0.10192851	0.022139715	1.379991	-0.07233293	0.086299041	1.0046141	-0.30173446	-0.049584825	1.0386509	0.12879184	0.30025494	0.87556452	-0.29347041	-0.00070521571	0.81592252	0.21640734
262	1.044	0.015529937	-0.056227695	-0.114466	0.37858881	0.1047826	0.085722257	-0.10924847	-0.002533813	-0.15898861	0.24108084	0.13749495	0.070227866	-0.10598475	0.021512905	-0.078799939	0.29410297	0.15653358	-0.00066780081	-0.17943282	-0.015975004	-0.12027783	0.20852366	0.11397445	0.0073487772	-0.011974265	0.37431527	-0.18641811	0.35745944	0.51067823	0.11251207	-0.01972903	0.35241861	-0.066046869	0.39662681	0.52816826	-0.0106021	0.074678707	0.76333573	-0.24051204	0.09510543	0.81144631	0.14371832	0.1471305	0.86902975	-0.18089172	0.15233027	0.89194702	0.060800825	-0.062481057	0.90545465	-0.036213148	0.11598376	1.3471198	-0.21769369	0.097092248	1.3531922	0.10201251	0.027858263	1.3792831	-0.071979341	0.09470875	1.0036148	-0.3012492	-0.046383857	1.0390406	0.12875046	0.31117675	0.87825669	-0.29018459	0.00040917061	0.81625223	0.21725342
263	1.048	0.015522354	-0.056247091	-0.11447788	0.39866712	0.10403507	0.08570264	-0.10945822	-0.0025080681	-0.15816213	0.26036652	0.13357636	0.071023599	-0.10572094	0.021629037	-0.078003244	0.31231974	0.15420761	5.6585132e-05	-0.1795016	-0.015747573	-0.11923019	0.22788596	0.10948102	0.0084423321	-0.01155957	0.37413092	-0.18613681	0.36510912	0.51148111	0.11214228	-0.018575799	0.35210367	-0.065800111	0.40317861	0.52914349	-0.010910336	0.077874104	0.76252701	-0.24048605	0.10116723	0.81155998	0.14371685	0.15098227	0.86808243	-0.18131463	0.15819482	0.89146128	0.060333787	-0.057485065	0.90485755	-0.034959737	0.12134708	1.3463491	-0.21766125	0.10322476	1.3521111	0.10209526	0.033646382	1.3784754	-0.071754215	0.10326969	1.0025397	-0.30072242	-0.043044102	1.0393276	0.12869024	0.32201775	0.88095254	-0.28694332	0.001581679	0.81651769	0.21812349
